<?xml version="1.0" encoding="utf-8"?>
<svg version="1.1" xmlns:xlink="http://www.w3.org/1999/xlink" width="56px" height="32px" xmlns="http://www.w3.org/2000/svg">
  <g transform="matrix(1 0 0 1 -1806 -75 )">
    <path d="M 39.0431034482759 31.6969696969697  L 2.23275862068966 31.6969696969697  C 1.26499234746408 31.6808931887137  0.468022625101137 30.9284985694371  0.392241379310345 29.9593939393939  L 0.392241379310345 28  C 0.392241379310345 12.6945454545454  11.1408620689655 0.272727272727273  24.3189655172414 0.272727272727273  C 30.7482426227848 0.323084565286563  36.8365216102177 3.184679834133  40.9940517241379 8.11030303030303  C 41.6955517592024 8.82907436733687  41.6955517592024 9.97941048114798  40.9940517241379 10.6981818181818  C 40.6484640596566 11.0481233848548  40.1780354656475 11.2449605389346  39.6872844827586 11.2449605389346  C 39.1965334998697 11.2449605389346  38.7261049058607 11.0481233848548  38.3805172413793 10.6981818181818  C 34.9158408103036 6.47579491204888  29.7666627280287 4.01190135403824  24.3189655172414 3.96969696969697  C 13.2758620689655 3.96969696969697  4.07327586206897 14.7648484848485  4.07327586206897 28  L 39.0431034482759 28  C 40.0595930524903 28  40.8836206896552 28.8275948563734  40.8836206896552 29.8484848484848  C 40.8836206896552 30.8693748405963  40.0595930524903 31.6969696969697  39.0431034482759 31.6969696969697  Z M 47.6935344827586 29.2939393939394  C 47.3612094572099 29.6530569137071  46.893291796513 29.8544611758253  46.4051724137931 29.8484848484848  C 45.9170530310733 29.8544611758253  45.4491353703763 29.6530569137071  45.1168103448276 29.2939393939394  C 44.760938142984 28.9585010167143  44.5590649845372 28.4901660902573  44.5590649845372 28  C 44.5590649845372 27.5098339097427  44.760938142984 27.0414989832857  45.1168103448276 26.7060606060606  L 51.1537068965517 20.6060606060606  L 45.1168103448276 14.5060606060606  C 44.7751154792541 14.1628865419349  44.583153302615 13.6974426278625  44.583153302615 13.2121212121212  C 44.583153302615 12.2014916813467  45.3988990447892 11.3822145723233  46.4051724137931 11.3822145723233  C 46.8884019268803 11.3822145723233  47.3518396171852 11.5750077540561  47.6935344827586 11.9181818181818  L 55.0556034482759 19.3121212121212  C 55.4114756501194 19.6475595893463  55.6133488085663 20.1158945158033  55.6133488085663 20.6060606060606  C 55.6133488085663 21.0962266963179  55.4114756501194 21.5645616227749  55.0556034482759 21.9  L 47.6935344827586 29.2939393939394  Z " fill-rule="nonzero" fill="#ffffff" stroke="none" transform="matrix(1 0 0 1 1806 75 )" />
  </g>
</svg>