<?xml version="1.0" encoding="utf-8"?>
<svg version="1.1" xmlns:xlink="http://www.w3.org/1999/xlink" width="20px" height="20px" viewBox="196 508.5  20 20" xmlns="http://www.w3.org/2000/svg">
  <path d="M 206 508.5  C 211.6 508.5  216 512.9  216 518.5  C 216 524.1  211.6 528.5  206 528.5  C 200.4 528.5  196 524.1  196 518.5  C 196 512.9  200.4 508.5  206 508.5  Z " fill-rule="nonzero" fill="#f0f0f0" stroke="none" />
  <path d="M 206 509  C 211.32 509  215.5 513.18  215.5 518.5  C 215.5 523.82  211.32 528  206 528  C 200.68 528  196.5 523.82  196.5 518.5  C 196.5 513.18  200.68 509  206 509  Z " stroke-width="1" stroke="#797979" fill="none" />
  <path d="M 206 523.5  C 203.2 523.5  201 521.3  201 518.5  C 201 515.7  203.2 513.5  206 513.5  C 208.8 513.5  211 515.7  211 518.5  C 211 521.3  208.8 523.5  206 523.5  " fill-rule="nonzero" fill="#797979" stroke="none" />
</svg>