<?xml version="1.0" encoding="utf-8"?>
<svg version="1.1" xmlns:xlink="http://www.w3.org/1999/xlink" width="27px" height="27px" xmlns="http://www.w3.org/2000/svg">
  <g transform="matrix(1 0 0 1 -1817 -53 )">
    <path d="M 26.5397727272727 13.5  C 26.5397727272727 20.73555781909  20.6741941827264 26.6011363636364  13.4386363636364 26.6011363636364  C 6.20307854454634 26.6011363636364  0.3375 20.73555781909  0.3375 13.5  C 0.3375 6.26444218090998  6.20307854454634 0.398863636363636  13.4386363636364 0.398863636363636  C 20.6741941827264 0.398863636363636  26.5397727272727 6.26444218090998  26.5397727272727 13.5  Z M 22.7965909090909 13.5  C 22.7965909090909 8.3317444149357  18.6068919487007 4.14204545454546  13.4386363636364 4.14204545454546  C 8.27038077857206 4.14204545454546  4.08068181818182 8.3317444149357  4.08068181818182 13.5  C 4.08068181818182 18.6682555850643  8.27038077857206 22.8579545454545  13.4386363636364 22.8579545454545  C 18.6068919487007 22.8579545454545  22.7965909090909 18.6682555850643  22.7965909090909 13.5  Z " fill-rule="nonzero" fill="#ffffff" stroke="none" transform="matrix(1 0 0 1 1817 53 )" />
  </g>
</svg>